# Blender v2.65 (sub 0) OBJ File: ''
# www.blender.org
mtllib map1.mtl
g grass
v -4.475368 -0.684276 8.482059
v -4.475368 -0.684276 -8.423939
v 4.627212 -0.350770 -8.423939
v 4.627212 -0.350770 8.482059
v -4.475368 -0.255811 8.482059
v -4.475368 -0.255811 -8.423939
v 4.627212 0.077694 -8.423939
v 4.627212 0.077694 8.482059
vn -1.000000 -0.000000 0.000000
vn 0.000000 0.000000 -1.000000
vn 1.000000 -0.000000 0.000000
vn 0.000000 0.000000 1.000000
vn 0.036614 -0.999330 0.000000
vn -0.036614 0.999330 0.000000
usemtl Material.001
s off
f 2//1 1//1 5//1 6//1
f 6//2 7//2 3//2 2//2
f 7//3 8//3 4//3 3//3
f 1//4 4//4 8//4 5//4
f 1//5 2//5 3//5 4//5
f 8//6 7//6 6//6 5//6
g soil
v -4.435321 -2.523770 8.412312
v -4.435321 -2.523770 -8.675892
v 4.728734 -2.523770 -8.675892
v 4.728734 -2.523770 8.412312
v -4.435321 -0.523770 8.412312
v -4.435321 -0.523770 -8.675892
v 4.728734 -0.523770 -8.675892
v 4.728734 -0.523770 8.412312
vn -0.000000 -1.000000 0.000000
vn -0.000000 1.000000 0.000000
usemtl Material.003
s off
f 10//1 9//1 13//1 14//1
f 14//2 15//2 11//2 10//2
f 15//3 16//3 12//3 11//3
f 9//4 12//4 16//4 13//4
f 9//7 10//7 11//7 12//7
f 16//8 15//8 14//8 13//8
